<?xml version="1.0" encoding="utf-8"?>
<!-- Generator: Adobe Illustrator 24.0.0, SVG Export Plug-In . SVG Version: 6.00 Build 0)  -->
<svg version="1.1" id="Layer_1" xmlns="http://www.w3.org/2000/svg" xmlns:xlink="http://www.w3.org/1999/xlink" x="0px" y="0px"
	 viewBox="0 0 225.8 85" style="enable-background:new 0 0 225.8 85;" xml:space="preserve">
<style type="text/css">
	.st0{fill:#F6F6F6;}
	.st1{fill:#AAAAAA;}
</style>
<g>
	<g>
		<path class="st0" d="M183.3,0H42.5C19,0,0,19,0,42.5S19,85,42.5,85h140.8c23.5,0,42.5-19,42.5-42.5S206.7,0,183.3,0z"/>
	</g>
</g>
<g>
	<path class="st1" d="M31,26.8h3.8l2.8,24l0,0l3-24h4l3,24l0,0l3-24H54l-3.9,28.9h-5l-2.6-22h-0.1l-2.7,22h-4.9L31,26.8z"/>
	<path class="st1" d="M56,26.8h3.6v8.5c0,1.3,0,2.3-0.1,4h0.1c0.3-3.8,1.9-5.4,5-5.4c3,0,4.4,1.8,4.4,5.7v16.1h-3.5V40.8
		c0-2.5-0.8-3.7-2.6-3.7c-2.2,0-3.3,1.4-3.3,4.4v14.2H56L56,26.8L56,26.8z"/>
	<path class="st1" d="M71.7,50.3c0-4.8,2.1-7.1,7.9-7.1h1.7v-2.7c0-2.6-0.6-3.7-2.6-3.7s-2.8,0.9-2.8,3.7v0.3h-3.5
		c0-4.6,1.9-7.1,6.1-7.1h0.2c4.2,0,6.2,2.3,6.2,7.3v14.7h-3.7V55c0-1.2,0-2.1,0.1-3.9h-0.1c-0.3,3.5-1.9,5.1-4.7,5.1
		C73.5,56.1,71.7,54.3,71.7,50.3z M81.3,48.5V46h-1.7c-2.9,0-4.2,1.2-4.2,3.5v0.4c0,2,1.1,2.9,2.6,2.9
		C80.1,52.9,81.3,51.7,81.3,48.5z"/>
	<path class="st1" d="M94,37.3V50c0,1.8,0.8,2.4,2.6,2.4c0.5,0,0.9,0,1.5,0v3.3c-0.6,0-1,0-1.6,0c-4.7,0-6.1-1.8-6.1-5.4v-13h-3.2
		v-3h3.2v-5.4H94v5.4h4.1v3H94z"/>
	<path class="st1" d="M100.6,35.5h0.2c2,0,2.1-0.6,2.1-2.3v-1h-2.2v-5.4h4.5v6.4c0,3.4-1.5,4.8-4.7,4.8L100.6,35.5L100.6,35.5z"/>
	<path class="st1" d="M106,49.5v-0.6h3.5v0.8c0,2.5,0.7,3.4,2.8,3.4s2.7-0.8,2.7-2.8c0-2.2-0.5-2.5-3.6-4c-3.5-1.7-5.4-2.8-5.4-6.8
		s2.2-5.9,6-5.9h0.1c4.4,0,6.2,2.1,6.2,6.8v0.3h-3.5v-0.4c0-2.6-0.8-3.6-2.8-3.6s-2.6,0.9-2.6,2.6c0,2.1,0.6,2.5,3.5,3.9
		c3.7,1.7,5.4,2.6,5.4,6.8c0,4.1-1.8,6.2-6,6.2h-0.4C107.9,56.3,106,54.1,106,49.5z"/>
	<path class="st1" d="M133.8,37.3V50c0,1.8,0.8,2.4,2.6,2.4c0.5,0,0.9,0,1.5,0v3.3c-0.6,0-1,0-1.6,0c-4.7,0-6.1-1.8-6.1-5.4v-13H127
		v-3h3.2v-5.4h3.6v5.4h4.1v3H133.8z"/>
	<path class="st1" d="M140.8,26.8h3.6v8.5c0,1.3,0,2.3-0.1,4h0.1c0.3-3.8,1.9-5.4,5-5.4c3,0,4.4,1.8,4.4,5.7v16.1h-3.6V40.8
		c0-2.5-0.9-3.7-2.6-3.7c-2.2,0-3.3,1.4-3.3,4.4v14.2h-3.6V26.8L140.8,26.8L140.8,26.8z"/>
	<path class="st1" d="M160.8,27.6v4.6h-3.6v-4.6H160.8z M160.8,34.3v21.3h-3.6V34.3H160.8z"/>
	<path class="st1" d="M163.6,49.5v-0.6h3.5v0.8c0,2.5,0.7,3.4,2.8,3.4c2.1,0,2.7-0.8,2.7-2.8c0-2.2-0.5-2.5-3.6-4
		c-3.5-1.7-5.4-2.8-5.4-6.8s2.2-5.9,6-5.9h0.1c4.4,0,6.2,2.1,6.2,6.8v0.3h-3.5v-0.4c0-2.6-0.8-3.6-2.8-3.6s-2.6,0.9-2.6,2.6
		c0,2.1,0.6,2.5,3.5,3.9c3.7,1.7,5.4,2.6,5.4,6.8c0,4.1-1.8,6.2-6,6.2h-0.4C165.5,56.3,163.6,54.1,163.6,49.5z"/>
	<path class="st1" d="M181.8,39.8h2.2c2,0,2.9-1.1,2.9-3.7v-1.9c0-3.4-0.9-4.8-3.1-4.8s-3.1,1.2-3.1,4.1v1.7h-3.5v-0.7
		c0-5.6,2.2-8.3,6.5-8.3h0.3c4.4,0,6.5,2.7,6.5,8.4v1.2c0,5.1-2.3,6.9-5.1,7.1v5.3h-3.7v-8.4L181.8,39.8L181.8,39.8z M181.6,50.6h4
		v5h-4V50.6z"/>
</g>
</svg>
