<?xml version="1.0" encoding="utf-8"?>
<!-- Generator: Adobe Illustrator 24.0.0, SVG Export Plug-In . SVG Version: 6.00 Build 0)  -->
<svg version="1.1" id="Layer_1" xmlns="http://www.w3.org/2000/svg" xmlns:xlink="http://www.w3.org/1999/xlink" x="0px" y="0px"
	 viewBox="0 0 240 111.6" style="enable-background:new 0 0 240 111.6;" xml:space="preserve">
<defs>
  <filter id="shadow">
    <feDropShadow dx="5" dy="5" stdDeviation="3" flood-color="#222222" flood-opacity="0.1" />
  </filter>
</defs>
<style type="text/css">
	.st0{fill:#F6F6F6;filter:url(#shadow);}
	.st1{fill:#AAAAAA;}
</style>
<g>
	
		<image style="overflow:visible;opacity:0.25;enable-background:new    ;" width="1079" height="492" xlink:href="../../../../Dropbox/Antarctica/LUTI/3BF07A05308F3F09.png"  transform="matrix(0.2387 0 0 0.2387 -7.9416 -7.4484)">
	</image>
	<g>
		<path class="st0" d="M191.3,6.1H50.5C27,6.1,8,25.1,8,48.6s19,42.5,42.5,42.5h140.8c23.5,0,42.5-19,42.5-42.5S214.7,6.1,191.3,6.1
			z"/>
	</g>
</g>
<g>
	<path class="st1" d="M39,32.9h3.8l2.8,24l0,0l3-24h4l3,24l0,0l3-24H62l-3.9,28.9h-5l-2.6-22h-0.1l-2.7,22h-4.9L39,32.9z"/>
	<path class="st1" d="M64,32.9h3.6v8.5c0,1.3,0,2.3-0.1,4h0.1c0.3-3.8,1.9-5.4,5-5.4c3,0,4.4,1.8,4.4,5.7v16.1h-3.5V46.9
		c0-2.5-0.8-3.7-2.6-3.7c-2.2,0-3.3,1.4-3.3,4.4v14.2H64L64,32.9L64,32.9z"/>
	<path class="st1" d="M79.7,56.4c0-4.8,2.1-7.1,7.9-7.1h1.7v-2.7c0-2.6-0.6-3.7-2.6-3.7s-2.8,0.9-2.8,3.7v0.3h-3.5
		c0-4.6,1.9-7.1,6.1-7.1h0.2c4.2,0,6.2,2.3,6.2,7.3v14.7h-3.7v-0.7c0-1.2,0-2.1,0.1-3.9h-0.1c-0.3,3.5-1.9,5.1-4.7,5.1
		C81.5,62.2,79.7,60.4,79.7,56.4z M89.3,54.6v-2.5h-1.7c-2.9,0-4.2,1.2-4.2,3.5V56c0,2,1.1,2.9,2.6,2.9C88.1,59,89.3,57.8,89.3,54.6
		z"/>
	<path class="st1" d="M102,43.4v12.7c0,1.8,0.8,2.4,2.6,2.4c0.5,0,0.9,0,1.5,0v3.3c-0.6,0-1,0-1.6,0c-4.7,0-6.1-1.8-6.1-5.4v-13
		h-3.2v-3h3.2V35h3.6v5.4h4.1v3H102z"/>
	<path class="st1" d="M108.6,41.6h0.2c2,0,2.1-0.6,2.1-2.3v-1h-2.2v-5.4h4.5v6.4c0,3.4-1.5,4.8-4.7,4.8L108.6,41.6L108.6,41.6z"/>
	<path class="st1" d="M114,55.6V55h3.5v0.8c0,2.5,0.7,3.4,2.8,3.4s2.7-0.8,2.7-2.8c0-2.2-0.5-2.5-3.6-4c-3.5-1.7-5.4-2.8-5.4-6.8
		s2.2-5.9,6-5.9h0.1c4.4,0,6.2,2.1,6.2,6.8v0.3h-3.5v-0.4c0-2.6-0.8-3.6-2.8-3.6s-2.6,0.9-2.6,2.6c0,2.1,0.6,2.5,3.5,3.9
		c3.7,1.7,5.4,2.6,5.4,6.8c0,4.1-1.8,6.2-6,6.2h-0.4C115.9,62.4,114,60.2,114,55.6z"/>
	<path class="st1" d="M141.8,43.4v12.7c0,1.8,0.8,2.4,2.6,2.4c0.5,0,0.9,0,1.5,0v3.3c-0.6,0-1,0-1.6,0c-4.7,0-6.1-1.8-6.1-5.4v-13
		H135v-3h3.2V35h3.6v5.4h4.1v3H141.8z"/>
	<path class="st1" d="M148.8,32.9h3.6v8.5c0,1.3,0,2.3-0.1,4h0.1c0.3-3.8,1.9-5.4,5-5.4c3,0,4.4,1.8,4.4,5.7v16.1h-3.6V46.9
		c0-2.5-0.9-3.7-2.6-3.7c-2.2,0-3.3,1.4-3.3,4.4v14.2h-3.6V32.9H148.8z"/>
	<path class="st1" d="M168.8,33.7v4.6h-3.6v-4.6H168.8z M168.8,40.4v21.3h-3.6V40.4H168.8z"/>
	<path class="st1" d="M171.6,55.6V55h3.5v0.8c0,2.5,0.7,3.4,2.8,3.4c2.1,0,2.7-0.8,2.7-2.8c0-2.2-0.5-2.5-3.6-4
		c-3.5-1.7-5.4-2.8-5.4-6.8s2.2-5.9,6-5.9h0.1c4.4,0,6.2,2.1,6.2,6.8v0.3h-3.5v-0.4c0-2.6-0.8-3.6-2.8-3.6s-2.6,0.9-2.6,2.6
		c0,2.1,0.6,2.5,3.5,3.9c3.7,1.7,5.4,2.6,5.4,6.8c0,4.1-1.8,6.2-6,6.2h-0.4C173.5,62.4,171.6,60.2,171.6,55.6z"/>
	<path class="st1" d="M189.8,45.9h2.2c2,0,2.9-1.1,2.9-3.7v-1.9c0-3.4-0.9-4.8-3.1-4.8s-3.1,1.2-3.1,4.1v1.7h-3.5v-0.7
		c0-5.6,2.2-8.3,6.5-8.3h0.3c4.4,0,6.5,2.7,6.5,8.4v1.2c0,5.1-2.3,6.9-5.1,7.1v5.3h-3.7v-8.4H189.8z M189.6,56.7h4v5h-4V56.7z"/>
</g>
</svg>
