<svg id="Layer_1" data-name="Layer 1" xmlns="http://www.w3.org/2000/svg" xmlns:xlink="http://www.w3.org/1999/xlink" viewBox="0 0 257.6 117.46"><defs><style>.cls-1{opacity:0.25;isolation:isolate;}.cls-2{fill:#f6f6f6;}.cls-3{fill:#aaa;}</style></defs><title>LUTI_WhatsThis2</title><image class="cls-1" width="1079" height="492" transform="scale(0.24)" xlink:href="3BF07A05308F3F09.png"/><path class="cls-2" d="M286.1,170.7H145.3a42.5,42.5,0,0,0,0,85H286.1a42.5,42.5,0,0,0,0-85Z" transform="translate(-86.86 -157.17)"/><path class="cls-3" d="M133.8,197.5h3.8l2.8,24h0l3-24h4l3,24h0l3-24h3.4l-3.9,28.9h-5l-2.6-22h-.1l-2.7,22h-4.9Z" transform="translate(-86.86 -157.17)"/><path class="cls-3" d="M158.8,197.5h3.6V206c0,1.3,0,2.3-.1,4h.1c.3-3.8,1.9-5.4,5-5.4s4.4,1.8,4.4,5.7v16.1h-3.5V211.5c0-2.5-.8-3.7-2.6-3.7-2.2,0-3.3,1.4-3.3,4.4v14.2h-3.6V197.5Z" transform="translate(-86.86 -157.17)"/><path class="cls-3" d="M174.5,221c0-4.8,2.1-7.1,7.9-7.1h1.7v-2.7c0-2.6-.6-3.7-2.6-3.7s-2.8.9-2.8,3.7v.3h-3.5c0-4.6,1.9-7.1,6.1-7.1h.2c4.2,0,6.2,2.3,6.2,7.3v14.7H184v-.7c0-1.2,0-2.1.1-3.9H184c-.3,3.5-1.9,5.1-4.7,5.1C176.3,226.8,174.5,225,174.5,221Zm9.6-1.8v-2.5h-1.7c-2.9,0-4.2,1.2-4.2,3.5v.4c0,2,1.1,2.9,2.6,2.9C182.9,223.6,184.1,222.4,184.1,219.2Z" transform="translate(-86.86 -157.17)"/><path class="cls-3" d="M196.8,208v12.7c0,1.8.8,2.4,2.6,2.4h1.5v3.3h-1.6c-4.7,0-6.1-1.8-6.1-5.4V208H190v-3h3.2v-5.4h3.6V205h4.1v3Z" transform="translate(-86.86 -157.17)"/><path class="cls-3" d="M203.4,206.2h.2c2,0,2.1-.6,2.1-2.3v-1h-2.2v-5.4H208v6.4c0,3.4-1.5,4.8-4.7,4.8v-2.5Z" transform="translate(-86.86 -157.17)"/><path class="cls-3" d="M208.8,220.2v-.6h3.5v.8c0,2.5.7,3.4,2.8,3.4s2.7-.8,2.7-2.8c0-2.2-.5-2.5-3.6-4-3.5-1.7-5.4-2.8-5.4-6.8s2.2-5.9,6-5.9h.1c4.4,0,6.2,2.1,6.2,6.8v.3h-3.5V211c0-2.6-.8-3.6-2.8-3.6s-2.6.9-2.6,2.6c0,2.1.6,2.5,3.5,3.9,3.7,1.7,5.4,2.6,5.4,6.8s-1.8,6.2-6,6.2h-.4C210.7,227,208.8,224.8,208.8,220.2Z" transform="translate(-86.86 -157.17)"/><path class="cls-3" d="M236.6,208v12.7c0,1.8.8,2.4,2.6,2.4h1.5v3.3h-1.6c-4.7,0-6.1-1.8-6.1-5.4V208h-3.2v-3H233v-5.4h3.6V205h4.1v3Z" transform="translate(-86.86 -157.17)"/><path class="cls-3" d="M243.6,197.5h3.6V206c0,1.3,0,2.3-.1,4h.1c.3-3.8,1.9-5.4,5-5.4s4.4,1.8,4.4,5.7v16.1H253V211.5c0-2.5-.9-3.7-2.6-3.7-2.2,0-3.3,1.4-3.3,4.4v14.2h-3.6V197.5Z" transform="translate(-86.86 -157.17)"/><path class="cls-3" d="M263.6,198.3v4.6H260v-4.6Zm0,6.7v21.3H260V205Z" transform="translate(-86.86 -157.17)"/><path class="cls-3" d="M266.4,220.2v-.6h3.5v.8c0,2.5.7,3.4,2.8,3.4s2.7-.8,2.7-2.8c0-2.2-.5-2.5-3.6-4-3.5-1.7-5.4-2.8-5.4-6.8s2.2-5.9,6-5.9h.1c4.4,0,6.2,2.1,6.2,6.8v.3h-3.5V211c0-2.6-.8-3.6-2.8-3.6s-2.6.9-2.6,2.6c0,2.1.6,2.5,3.5,3.9,3.7,1.7,5.4,2.6,5.4,6.8s-1.8,6.2-6,6.2h-.4C268.3,227,266.4,224.8,266.4,220.2Z" transform="translate(-86.86 -157.17)"/><path class="cls-3" d="M284.6,210.5h2.2c2,0,2.9-1.1,2.9-3.7v-1.9c0-3.4-.9-4.8-3.1-4.8s-3.1,1.2-3.1,4.1v1.7H280v-.7c0-5.6,2.2-8.3,6.5-8.3h.3c4.4,0,6.5,2.7,6.5,8.4v1.2c0,5.1-2.3,6.9-5.1,7.1v5.3h-3.7v-8.4Zm-.2,10.8h4v5h-4Z" transform="translate(-86.86 -157.17)"/></svg>