<?xml version="1.0" encoding="utf-8"?>
<!-- Generator: Adobe Illustrator 26.3.1, SVG Export Plug-In . SVG Version: 6.00 Build 0)  -->
<svg version="1.1" id="Layer_1" xmlns="http://www.w3.org/2000/svg" xmlns:xlink="http://www.w3.org/1999/xlink" x="0px" y="0px"
	 viewBox="0 0 2631.3 2520.7" style="enable-background:new 0 0 2631.3 2520.7;" xml:space="preserve">
<style type="text/css">
	.st0{fill:#F6F6F6;}
	.st1{fill:#AAAAAA;}
</style>
<path class="st0" d="M1778.7,1667.3H906.6c-102.4,0-185.3-83-185.3-185.3V609.9c0-102.4,83-185.3,185.3-185.3h872.2
	c102.4,0,185.3,83,185.3,185.3V1482C1964,1584.4,1881.1,1667.3,1778.7,1667.3z"/>
<g>
	<path class="st1" d="M1341.8,728.1c-195.2,0-273.6,150.9-273.6,257c0,155,121.4,269.4,149.2,389.6h248.7
		c27.8-120.2,149.2-234.7,149.2-389.6C1615.4,879,1537.1,728.1,1341.8,728.1L1341.8,728.1z"/>
	<path class="st1" d="M1217.5,1491c0,36,14.2,50.2,50.2,50.2h5.1l4.9,14.8c7.5,22.5,16.7,29.1,40.4,29.1h47.6
		c23.7,0,32.9-6.6,40.4-29.1l4.9-14.8h5.1c36,0,50.2-14.2,50.2-50.2l0-75h-248.7L1217.5,1491z"/>
	<path class="st1" d="M1341.8,664.3c15.1,0,24.9-9.8,24.9-24.9V530c0-15.1-9.7-24.9-24.9-24.9c-15.1,0-24.9,9.8-24.9,24.9v109.4
		C1317,654.5,1326.7,664.3,1341.8,664.3z"/>
	<path class="st1" d="M1561.6,729.8c11.9,9.3,25.6,7.6,34.9-4.3l67.4-86.2c9.3-11.9,7.6-25.6-4.3-34.9c-11.9-9.3-25.6-7.6-34.9,4.3
		l-67.4,86.2C1548,706.8,1549.7,720.5,1561.6,729.8L1561.6,729.8z"/>
	<path class="st1" d="M1835.7,881.6c-3.7-14.7-15.5-21.8-30.2-18.1l-106.2,26.5c-14.7,3.7-21.8,15.5-18.1,30.1
		c3.7,14.7,15.5,21.8,30.2,18.1l106.2-26.5C1832.3,908.1,1839.4,896.2,1835.7,881.6L1835.7,881.6z"/>
	<path class="st1" d="M1782.9,1170.8l-100-44.5c-13.8-6.1-26.7-1.2-32.8,12.6c-6.1,13.8-1.2,26.7,12.6,32.8l100,44.5
		c13.8,6.2,26.7,1.2,32.8-12.6C1801.7,1189.9,1796.7,1177,1782.9,1170.8L1782.9,1170.8z"/>
	<path class="st1" d="M1087.2,725.5c9.3,11.9,23,13.6,34.9,4.3c11.9-9.3,13.6-23,4.3-34.9l-67.4-86.2c-9.3-11.9-23-13.6-34.9-4.3
		s-13.6,23-4.3,34.9L1087.2,725.5z"/>
	<path class="st1" d="M1002.4,920.1c3.7-14.7-3.5-26.5-18.1-30.2l-106.2-26.5c-14.7-3.6-26.5,3.5-30.2,18.1
		c-3.6,14.7,3.5,26.5,18.1,30.1l106.2,26.5C986.9,941.8,998.7,934.8,1002.4,920.1L1002.4,920.1z"/>
	<path class="st1" d="M1000.7,1126.3l-100,44.5c-13.8,6.1-18.8,19-12.6,32.8c6.1,13.8,19,18.8,32.8,12.6l100-44.5
		c13.8-6.1,18.8-19,12.6-32.8C1027.4,1125.2,1014.5,1120.2,1000.7,1126.3z"/>
</g>
</svg>
