<?xml version="1.0" encoding="utf-8"?>
<!-- Generator: Adobe Illustrator 26.3.1, SVG Export Plug-In . SVG Version: 6.00 Build 0)  -->
<svg version="1.1" id="Layer_1" xmlns="http://www.w3.org/2000/svg" xmlns:xlink="http://www.w3.org/1999/xlink" x="0px" y="0px"
	 viewBox="0 0 2631.3 2520.7" style="enable-background:new 0 0 2631.3 2520.7;" xml:space="preserve">
<style type="text/css">
	.st0{fill:#F6F6F6;}
	.st1{fill:#AAAAAA;}
</style>
<path class="st0" d="M1778.7,1667.3H906.6c-102.4,0-185.3-83-185.3-185.3V609.9c0-102.4,83-185.3,185.3-185.3h872.2
	c102.4,0,185.3,83,185.3,185.3V1482C1964,1584.4,1881.1,1667.3,1778.7,1667.3z"/>
<path class="st1" d="M1370.3,1304c0,42.6-49.7,66.7-83.7,41.2l-194.4-149H997c-24.1,0-45.4-19.9-45.4-45.4l0-210.1
	c0-24.1,19.9-45.4,45.4-45.4h95.1l194.4-149c34.1-25.5,83.7-1.4,83.7,41.2L1370.3,1304z"/>
<g>
	<path class="st1" d="M1639.6,1008.7h-110.9c-20.6,0-36.7,16.1-36.7,36.7c0,20.6,16.1,36.7,36.7,36.7h110.9
		c20.6,0,36.7-16.1,36.7-36.7C1676.3,1024.7,1660.3,1008.7,1639.6,1008.7z"/>
	<path class="st1" d="M1470.6,942.9c9.2,0,19.1-3.8,26-10.7l78.8-78.8c14.5-14.5,14.5-37.5,0-52s-37.5-14.5-52,0l-78.8,78.8
		c-14.5,14.5-14.5,37.5,0,52C1451.5,939.1,1461.4,942.9,1470.6,942.9L1470.6,942.9z"/>
	<path class="st1" d="M1496.6,1158.6c-14.5-14.5-37.5-14.5-52,0s-14.5,37.5,0,52l78.8,78.8c6.9,6.9,16.8,10.7,26,10.7
		c9.2,0,19.1-3.8,26-10.7c14.5-14.5,14.5-37.5,0-52L1496.6,1158.6z"/>
</g>
</svg>
