<?xml version="1.0" encoding="utf-8"?>
<!-- Generator: Adobe Illustrator 26.3.1, SVG Export Plug-In . SVG Version: 6.00 Build 0)  -->
<svg version="1.1" id="Layer_1" xmlns="http://www.w3.org/2000/svg" xmlns:xlink="http://www.w3.org/1999/xlink" x="0px" y="0px"
	 viewBox="0 0 2631.3 2520.7" style="enable-background:new 0 0 2631.3 2520.7;" xml:space="preserve">
<style type="text/css">
	.st0{fill:#AAAAAA;}
	.st1{fill:#F6F6F6;}
</style>
<path class="st0" d="M1778.7,1667.3H906.6c-102.4,0-185.3-83-185.3-185.3V609.9c0-102.4,83-185.3,185.3-185.3h872.2
	c102.4,0,185.3,83,185.3,185.3V1482C1964,1584.4,1881.1,1667.3,1778.7,1667.3z"/>
<path class="st1" d="M1370.3,1304c0,42.6-49.7,66.7-83.7,41.2l-194.4-149H997c-24.1,0-45.4-19.9-45.4-45.4l0-210.1
	c0-24.1,19.9-45.4,45.4-45.4h95.1l194.4-149c34.1-25.5,83.7-1.4,83.7,41.2L1370.3,1304z M1723.7,1105.3c9.9,9.9,9.9,27,0,36.9
	l-28.4,28.4c-9.9,9.9-27,9.9-36.9,0l-59.6-59.6l-58.2,58.2c-9.9,9.9-27,9.9-36.9,0l-28.4-28.4c-9.9-9.9-9.9-27,0-36.9l59.6-59.6
	l-59.6-59.6c-9.9-9.9-9.9-27,0-36.9l28.4-28.4c9.9-9.9,27-9.9,36.9,0l59.6,59.6l59.6-59.6c9.9-9.9,27-9.9,36.9,0l28.4,28.4
	c9.9,9.9,9.9,27,0,36.9l-61,61L1723.7,1105.3z"/>
</svg>
