<?xml version="1.0" encoding="utf-8"?>
<!-- Generator: Adobe Illustrator 26.3.1, SVG Export Plug-In . SVG Version: 6.00 Build 0)  -->
<svg version="1.1" id="Layer_1" xmlns="http://www.w3.org/2000/svg" xmlns:xlink="http://www.w3.org/1999/xlink" x="0px" y="0px"
	 viewBox="0 0 2631.3 2520.7" style="enable-background:new 0 0 2631.3 2520.7;" xml:space="preserve">
<style type="text/css">
	.st0{fill:#AAAAAA;}
	.st1{fill:#F6F6F6;}
</style>
<path class="st0" d="M1778.7,1667.3H906.6c-102.4,0-185.3-83-185.3-185.3V609.9c0-102.4,83-185.3,185.3-185.3h872.2
	c102.4,0,185.3,83,185.3,185.3V1482C1964,1584.4,1881.1,1667.3,1778.7,1667.3z"/>
<g>
	<path class="st1" d="M1341.8,728.1c-195.2,0-273.6,150.9-273.6,257c0,155,121.4,269.4,149.2,389.6h248.7
		c27.8-120.2,149.2-234.7,149.2-389.6C1615.4,879,1537.1,728.1,1341.8,728.1L1341.8,728.1z"/>
	<path class="st1" d="M1217.5,1491c0,36,14.2,50.2,50.2,50.2h5.1l4.9,14.8c7.5,22.5,16.7,29.1,40.4,29.1h47.6
		c23.7,0,32.9-6.6,40.4-29.1l4.9-14.8h5.1c36,0,50.2-14.2,50.2-50.2l0-75h-248.7L1217.5,1491z"/>
</g>
</svg>
